<svg width="836" height="1082" viewBox="0 0 836 1082" fill="none" xmlns="http://www.w3.org/2000/svg">
<g id="Frame" clip-path="url(#clip0_0_1)">
<g id="Group 7">
<g id="Group 6">
<g id="Component 1">
<g id="City Hall">
<path id="top3" d="M479.862 312.397V277.898H344.262V312.397H352.862L353.125 317.033C353.328 320.617 353.733 321.737 354.909 321.963C356.3 322.232 356.431 321.188 356.431 309.808C356.431 298.538 356.594 297.193 358.169 295.591C359.962 293.766 360.843 293.487 363.819 293.802C368.002 294.243 368.538 295.904 368.794 309.196L369.034 321.686L374.684 321.802C378.043 321.872 380.605 321.514 381.003 320.918C381.371 320.367 381.59 314.856 381.491 308.672C381.332 298.825 381.509 297.202 382.912 295.624C385.277 292.965 389.743 293.223 392.006 296.152C393.614 298.233 393.807 299.691 393.807 309.768C393.807 317.983 394.103 321.168 394.894 321.475C395.492 321.707 398.132 321.849 400.762 321.791L405.542 321.686L405.977 309.213C406.47 295.073 406.964 293.821 412.061 293.821C417.159 293.821 417.653 295.073 418.146 309.213L418.58 321.686L423.361 321.791C425.99 321.849 428.631 321.707 429.228 321.475C430.019 321.168 430.315 317.983 430.315 309.768C430.315 299.691 430.508 298.233 432.117 296.152C434.396 293.202 438.845 292.965 441.245 295.662C442.695 297.293 442.858 298.786 442.663 308.711C442.541 314.873 442.746 320.367 443.115 320.918C443.515 321.513 446.081 321.872 449.438 321.802L455.088 321.686L455.328 309.196C455.584 295.904 456.12 294.243 460.303 293.802C463.28 293.487 464.16 293.766 465.953 295.591C467.518 297.183 467.692 298.538 467.692 309.153C467.692 315.642 467.926 321.187 468.212 321.477C468.498 321.768 469.28 321.792 469.95 321.53C470.766 321.211 471.169 319.623 471.169 316.726V312.397H479.862Z" fill="#D9D9D9"/>
<path id="top1" d="M422.926 178.727C424.839 179.625 427.296 181.348 428.388 182.555C429.48 183.763 438.702 196.255 448.881 210.316L467.39 235.88L439.725 236.113C424.51 236.242 399.612 236.242 384.397 236.113L356.734 235.88L375.242 210.316C385.421 196.255 394.643 183.763 395.734 182.555C399.257 178.658 403.934 177.094 412.061 177.094C417.409 177.094 420.41 177.545 422.926 178.727Z" fill="#D9D9D9"/>
<path id="top2" d="M473.777 261.977V249.592H350.346V261.977H384.245V255.783H396.415V261.977H405.977V255.783H418.146V261.977H427.708V255.783H439.877V261.977H473.777Z" fill="#D9D9D9"/>
<path id="mid" fill-rule="evenodd" clip-rule="evenodd" d="M471.382 428.5C471.503 480.194 471.503 573.539 471.379 635.938L471.156 749.386H352.954V334.513H471.162L471.382 428.5ZM362.515 381.396V397.318H374.684V381.396H362.515ZM384.245 381.396V397.318H396.415V381.396H384.245ZM405.977 381.396V397.318H418.146V381.396H405.977ZM427.708 381.396V397.318H439.877V381.396H427.708ZM449.438 381.396V397.318H461.607V381.396H449.438ZM362.515 413.241V428.279H374.684V413.241H362.515ZM384.245 413.241V428.279H396.415V413.241H384.245ZM405.977 413.241V428.279H418.146V413.241H405.977ZM427.708 413.241V428.279H439.877V413.241H427.708ZM449.438 413.241V428.279H461.607V413.241H449.438ZM362.515 444.201V460.125H374.684V444.201H362.515ZM384.245 444.201V460.125H396.415V444.201H384.245ZM405.977 444.201V460.125H418.146V444.201H405.977ZM427.708 444.201V460.125H439.877V444.201H427.708ZM449.438 444.201V460.125H461.607V444.201H449.438ZM362.515 476.047V491.085H374.684V476.047H362.515ZM384.245 476.047V491.085H396.415V476.047H384.245ZM405.977 476.047V491.085H418.146V476.047H405.977ZM427.708 476.047V491.085H439.877V476.047H427.708ZM449.438 476.047V491.085H461.607V476.047H449.438ZM362.515 507.008V522.931H374.684V507.008H362.515ZM384.245 507.008V522.931H396.415V507.008H384.245ZM405.977 507.008V522.931H418.146V507.008H405.977ZM427.708 507.008V522.931H439.877V507.008H427.708ZM449.438 507.008V522.931L461.173 522.924L461.622 507.008H449.438ZM362.515 569.814V585.737H374.684V569.814H362.515ZM384.245 569.814V585.737H396.415V569.814H384.245ZM405.977 569.814V585.737H418.192L417.943 570.879L415.329 570.346C413.89 570.054 411.197 569.814 409.345 569.814H405.977ZM427.708 569.814V585.737H439.877V569.814H427.708ZM449.438 569.814V585.737H461.607V569.814H449.438ZM362.447 601.659L362.95 617.139L374.684 617.662V601.659H362.447ZM384.245 601.659V617.582H396.415V601.659H384.245ZM405.977 601.659V617.582H418.146V601.659H405.977ZM427.708 601.659V617.582H439.877V601.659H427.708ZM449.438 601.659V617.582H461.607V601.659H449.438ZM362.515 664.465V680.388H374.684V664.465H362.515ZM384.245 664.465V680.388H396.415V664.465H384.245ZM405.977 664.465V680.388H418.146V664.465H405.977ZM427.708 664.465V680.388H439.877V664.465H427.708ZM449.438 664.465V680.388H461.607V664.465H449.438ZM362.515 696.31V711.349H374.684V696.31H362.515ZM384.245 696.31V711.349H396.415V696.31H384.245ZM405.977 696.31V711.349H418.146V696.31H405.977ZM427.708 696.31V711.349H439.877V696.31H427.708ZM449.438 696.31V711.349H461.607V696.31H449.438ZM362.515 727.272V743.194H374.684V727.272H362.515ZM384.245 727.272V743.194H396.415V727.272H384.245ZM405.977 727.272V743.194H418.146V727.272H405.977ZM427.708 727.272V743.194H439.877V727.272H427.708ZM449.438 727.272V743.194H461.607V727.272H449.438ZM362.081 634.167V650.09H374.25V634.167H362.081ZM383.811 634.167V650.09H395.981V634.167H383.811ZM405.542 634.167V650.09H417.711V634.167H405.542ZM427.273 634.167V650.09H439.442V634.167H427.273ZM449.004 634.167V650.09H461.173V634.167H449.004ZM362.515 537.616V553.54H374.684V537.616H362.515ZM384.245 537.616V553.54H396.415V537.616H384.245ZM405.977 537.616V553.54H418.146V537.616H405.977ZM427.708 537.616V553.54H439.877V537.616H427.708ZM449.438 537.616V553.54H461.607V537.616H449.438ZM362.081 348.886V364.809H374.25V348.886H362.081ZM383.811 348.886V364.809H395.981V348.886H383.811ZM405.542 348.886V364.809H417.711V348.886H405.542ZM427.273 348.886V364.809H439.442V348.886H427.273ZM449.004 348.886V364.809H461.173V348.886H449.004Z" fill="#D9D9D9"/>
<path id="outsideL" d="M316.45 821.923L316.012 343.801L294.715 343.303V821.923H316.45Z" fill="#D9D9D9"/>
<path id="insideL" d="M340.784 821.922V324.782H328.615V821.922H340.784Z" fill="#D9D9D9"/>
<path id="insideR" d="M495.544 398.424C495.564 438.929 495.605 481.023 495.634 491.97C495.663 502.917 495.648 581.634 495.598 666.898L495.507 821.922H483.366L483.135 665.571C483.008 579.577 483.007 467.72 483.133 417L483.362 324.782H495.507L495.544 398.424Z" fill="#D9D9D9"/>
<path id="outsideR" d="M529.407 395.549C529.407 425.615 529.737 447.74 530.184 447.74C530.631 447.74 530.654 449.149 530.236 451.057C529.838 452.883 529.529 459.748 529.548 466.317C529.567 472.884 529.544 555.582 529.495 650.09L529.407 821.922H507.676V583.23C507.676 451.949 507.937 344.272 508.256 343.949C508.574 343.624 513.464 343.359 519.121 343.359H529.407V395.549Z" fill="#D9D9D9"/>
<path id="leftBuild" fill-rule="evenodd" clip-rule="evenodd" d="M282.111 821.48V683.484L118.252 683.033L118.696 837.403L272.985 837.855V822.016L282.111 821.48ZM239.084 721.079V737.002H251.253V721.079H239.084ZM257.338 721.079V737.002H269.508V721.079H257.338ZM239.084 752.924V767.962H251.253V752.924H239.084ZM257.338 752.924V767.962H269.508V752.924H257.338ZM186.931 783.886V799.808H199.1V783.886H186.931ZM205.184 783.886V799.808H217.354V783.886H205.184ZM239.084 783.886V799.808H251.253V783.886H239.084ZM257.338 783.886V799.808H269.508V783.886H257.338ZM239.084 815.731V830.768H251.253V815.731H239.084ZM257.338 815.731V830.768H269.508V815.731H257.338ZM133.243 784.328V800.251H145.412V784.328H133.243ZM151.496 784.328V800.251H163.666V784.328H151.496ZM133.243 815.288V831.211H145.412V815.288H133.243ZM151.496 815.288V831.211H163.666V815.288H151.496ZM133.243 690.118V706.041H145.412V690.118H133.243ZM151.496 690.118V706.041H163.666V690.118H151.496ZM186.999 814.712V830.636H199.168V814.712H186.999ZM205.252 814.712V830.636H217.422V814.712H205.252ZM186.999 752.038V767.961H199.168V752.038H186.999ZM205.252 752.038V767.961H217.422V752.038H205.252ZM133.243 752.039V767.962H145.412V752.039H133.243ZM151.496 752.039V767.962H163.666V752.039H151.496ZM186.999 720.637V736.559H199.168V720.637H186.999ZM205.252 720.637V736.559H217.422V720.637H205.252ZM133.243 721.964V737.887H145.412V721.964H133.243ZM151.496 721.964V737.887H163.666V721.964H151.496ZM188.017 690.118V706.041H200.186V690.118H188.017ZM206.271 690.118V706.041H218.441V690.118H206.271ZM238.667 690.118V706.041H250.836V690.118H238.667ZM256.921 690.118V706.041H269.091V690.118H256.921Z" fill="#D9D9D9"/>
<path id="rightBuild" fill-rule="evenodd" clip-rule="evenodd" d="M705.426 837.403L705.87 683.042H624.13C559.54 683.042 542.304 683.273 541.977 684.147C541.749 684.757 541.663 715.905 541.787 753.367L542.011 821.48L551.138 822.016V837.855L705.426 837.403ZM554.615 689.452V705.157H566.852L566.35 690.026L554.615 689.452ZM572.869 697.786C572.869 693.73 573.069 690.209 573.315 689.959C573.561 689.71 576.201 689.543 579.183 689.591L584.604 689.677L585.106 705.157H572.869V697.786ZM606.769 697.711C606.769 693.507 607.149 690.138 607.642 689.97C608.425 689.708 611.039 689.721 616.982 690.02C618.849 690.114 618.938 690.459 618.938 697.638V705.157H606.769V697.711ZM625.023 697.786C625.023 693.73 625.187 690.248 625.387 690.045C625.588 689.842 628.362 689.701 631.553 689.731L637.354 689.787L637.351 695.482C637.345 706.159 637.992 705.157 631.107 705.157H625.023V697.786ZM554.615 721.079V737.002H566.784V721.079H554.615ZM572.869 721.079V737.002H585.038V721.079H572.869ZM625.023 760.517C625.023 756.422 625.406 752.939 625.873 752.777C626.342 752.615 629.19 752.613 632.202 752.771L637.679 753.058L637.626 767.961L625.023 767.962V760.517ZM554.615 752.924V767.962H566.784V752.924H554.615ZM572.869 752.924V767.962H585.038V752.924H572.869ZM606.769 752.924V767.962H618.938V752.924H606.769ZM659.302 752.924L659.357 767.961L671.961 767.962V752.924H659.302ZM678.046 752.924V767.962H690.215V752.924H678.046ZM554.615 783.886V799.808H566.784V783.886H554.615ZM572.869 783.886V799.808H585.038V783.886H572.869ZM606.769 783.886V799.808H618.938V783.886H606.769ZM624.954 783.886L625.457 799.366L637.192 799.888V783.886H624.954ZM659.792 783.805V799.888L671.526 799.366V784.328L659.792 783.805ZM678.046 783.886V799.808H690.215V783.886H678.046ZM554.615 815.731V830.768H566.784V815.731H554.615ZM572.869 815.731V830.768H585.038V815.731H572.869ZM606.769 815.731V830.768H618.938V815.731H606.769ZM625.873 830.916C625.406 830.753 625.023 827.272 625.023 823.176V815.731L637.626 815.732L637.679 830.636L632.202 830.922C629.19 831.081 626.342 831.079 625.873 830.916ZM664.781 830.922L659.304 830.636L659.357 815.732L671.961 815.731V823.176C671.961 827.272 671.577 830.753 671.11 830.916C670.641 831.079 667.794 831.081 664.781 830.922ZM678.046 815.731V830.768H690.215V815.731H678.046ZM659.357 689.731V705.655H671.526V689.731H659.357ZM677.611 689.731V705.655H689.781V689.731H677.611ZM659.792 720.637V736.559H671.961V720.637H659.792ZM678.045 720.637V736.559H690.215V720.637H678.045ZM606.768 721.079V737.002H618.937V721.079H606.768ZM625.022 721.079V737.002H637.192V721.079H625.022Z" fill="#D9D9D9"/>
<path id="columnmid" d="M538.969 906.921V834.307H285.154V906.401H297.757L298.192 884.57C298.596 864.281 298.754 862.567 300.419 860.297C307.629 850.481 321.729 851.35 326.757 861.922C328.491 865.565 328.615 867.197 328.615 886.336V906.844H346.73L347.018 885.834C347.26 868.033 347.531 864.402 348.793 862.055C350.852 858.229 354.998 854.876 359.038 853.768C366.36 851.762 375.256 856.866 377.264 864.227C377.752 866.015 378.153 876.337 378.156 887.161L378.161 906.844H396.303L396.85 863.659L399.55 860.261C403.284 855.563 407.193 853.428 412.061 853.428C416.93 853.428 421.409 855.562 425.143 860.26L427.843 863.659V906.844H445.961L445.966 887.161C445.969 876.337 446.37 866.015 446.858 864.227C448.867 856.866 457.762 851.762 465.086 853.768C469.124 854.876 473.27 858.229 475.329 862.055C476.591 864.402 476.862 868.033 477.105 885.834L477.392 906.844H495.507V886.336C495.507 867.197 495.631 865.565 497.365 861.922C502.393 851.35 516.494 850.481 523.703 860.297C525.369 862.567 525.526 864.281 525.931 884.57L526.365 906.401L538.969 906.921Z" fill="#D9D9D9"/>
<path id="columnR" d="M724.114 906.844V868.806H551.138V906.844H560.7L560.713 892.911C560.721 885.249 561.013 878.541 561.365 878.006C562.237 876.677 565.495 874.998 567.202 874.998C567.972 874.998 569.562 875.975 570.735 877.17C572.818 879.289 572.869 879.671 572.869 893.092V906.844H588.515L588.528 892.911C588.536 885.249 588.829 878.541 589.18 878.006C590.052 876.677 593.309 874.998 595.016 874.998C595.787 874.998 597.376 875.975 598.55 877.17C600.632 879.289 600.685 879.671 600.685 893.092V906.844H616.33L616.343 892.911C616.351 885.249 616.644 878.541 616.995 878.006C617.867 876.677 621.125 874.998 622.832 874.998C623.602 874.998 625.192 875.975 626.365 877.17C628.448 879.289 628.499 879.671 628.499 893.092V906.844H644.146L644.159 892.911C644.167 885.249 644.459 878.541 644.811 878.006C645.683 876.677 648.941 874.998 650.648 874.998C651.418 874.998 653.008 875.975 654.181 877.17C656.264 879.289 656.315 879.671 656.315 893.092V906.844H671.961L671.974 892.911C671.982 885.249 672.275 878.541 672.626 878.006C673.498 876.677 676.755 874.998 678.462 874.998C679.233 874.998 680.822 875.975 681.997 877.17C684.079 879.289 684.131 879.671 684.131 893.092V906.844H699.776L699.79 892.911C699.797 885.249 700.09 878.541 700.442 878.006C701.313 876.677 704.571 874.998 706.278 874.998C707.048 874.998 708.638 875.975 709.811 877.17C711.894 879.289 711.945 879.671 711.945 893.092V906.844H724.114Z" fill="#D9D9D9"/>
<path id="pillars" d="M365.996 868.41L365.631 906.844H359.038V868.41V864.102L359.845 861.968L362.684 860.704L365.049 861.968L365.996 864.102V868.41Z" fill="#D9D9D9"/>
<path id="pillars_2" d="M316.225 868.41L315.86 906.844H309.267V868.41V864.102L310.074 861.968L312.913 860.704L315.278 861.968L316.225 864.102V868.41Z" fill="#D9D9D9"/>
<path id="pillars_3" d="M415.722 867.968L415.358 906.401H408.764V867.968V863.659L409.571 861.526L412.41 860.261L414.776 861.526L415.722 863.659V867.968Z" fill="#D9D9D9"/>
<path id="pillars_4" d="M465.086 868.41L464.721 906.844H458.128V868.41V864.102L458.935 861.968L461.774 860.704L464.139 861.968L465.086 864.102V868.41Z" fill="#D9D9D9"/>
<path id="pillars_5" d="M514.634 869.242L514.27 907.72H507.676V869.242V864.928L508.483 862.793L511.322 861.526L513.688 862.793L514.634 864.928V869.242Z" fill="#D9D9D9"/>
<path id="rightGutter" fill-rule="evenodd" clip-rule="evenodd" d="M693.692 670.658V658.273H541.577V670.658H693.692ZM569.541 665.388C569.383 664.324 569.431 662.984 569.647 662.411C569.901 661.735 572.113 661.415 575.958 661.5L581.877 661.63V667.315L575.852 667.321C570.318 667.326 569.803 667.168 569.541 665.388ZM597.207 667.451C594.785 667.554 594.6 667.34 594.6 664.465C594.6 661.591 594.785 661.377 597.207 661.48C598.642 661.541 601.379 661.64 603.291 661.701C606.551 661.805 606.769 661.977 606.769 664.465C606.769 666.953 606.551 667.126 603.291 667.229C601.379 667.291 598.642 667.39 597.207 667.451ZM619.087 665.381C618.93 664.321 618.977 662.984 619.194 662.411C619.44 661.757 621.73 661.369 625.347 661.369H631.107L631.108 667.561L625.24 667.436C619.924 667.322 619.346 667.129 619.087 665.381ZM646.536 667.441C644.346 667.604 644.146 667.357 644.144 664.494L644.141 661.369L650.228 661.663C656.308 661.956 656.315 661.959 656.315 664.537C656.315 666.973 656.106 667.123 652.621 667.191C650.588 667.23 647.851 667.343 646.536 667.441ZM668.484 664.513C668.484 662.033 668.683 661.895 672.613 661.639C680.786 661.106 680.653 661.059 680.652 664.465L680.651 667.561L676.089 667.462C668.359 667.294 668.484 667.343 668.484 664.513Z" fill="#D9D9D9"/>
<path id="leftGutter" fill-rule="evenodd" clip-rule="evenodd" d="M282.546 670.658V658.273H130.431V670.658H282.546ZM145.86 667.441C143.666 667.604 143.469 667.36 143.469 664.465C143.469 661.571 143.666 661.325 145.86 661.489C147.174 661.588 149.912 661.7 151.944 661.741C155.454 661.808 155.638 661.944 155.638 664.465C155.638 666.986 155.454 667.122 151.944 667.191C149.912 667.23 147.174 667.343 145.86 667.441ZM167.807 664.513C167.807 662.033 168.006 661.895 171.937 661.639C180.117 661.105 179.976 661.054 179.976 664.494C179.976 667.357 179.776 667.604 177.586 667.441C176.272 667.343 173.533 667.23 171.502 667.191C168.008 667.122 167.807 666.977 167.807 664.513ZM193.014 661.369V667.561L204.75 667.3V661.631L193.014 661.369ZM217.354 664.538C217.354 663.119 217.843 661.783 218.441 661.568C219.039 661.352 221.775 661.219 224.524 661.273L229.52 661.369L229.523 667.561L224.525 667.479C217.334 667.36 217.354 667.368 217.354 664.538ZM242.324 664.563C242.368 663.05 242.439 661.713 242.482 661.591C242.525 661.468 245.201 661.428 248.428 661.5L254.296 661.631V667.315H242.245L242.324 664.563ZM267.049 665.499C266.892 664.373 266.945 662.969 267.167 662.379C267.428 661.686 269.523 661.328 273.103 661.367L278.635 661.427V667.54L272.985 667.544C267.739 667.547 267.314 667.4 267.049 665.499Z" fill="#D9D9D9"/>
<path id="midBottom" fill-rule="evenodd" clip-rule="evenodd" d="M470.734 821.48V762.213L412.253 761.985C365.734 761.804 353.687 761.987 353.351 762.877C353.119 763.494 353.033 776.93 353.159 792.739L353.389 821.48H470.734ZM362.515 767.962V783.886H374.684V767.962H362.515ZM384.245 767.962V783.886H396.415V767.962H384.245ZM405.977 767.962V783.886H418.146V767.962H405.977ZM427.708 767.962V783.886H439.877V767.962H427.708ZM449.438 767.962V783.886H461.607V767.962H449.438ZM362.515 799.808V815.731H374.684V799.808H362.515ZM384.245 799.808V815.731H396.415V799.808H384.245ZM405.977 799.808V815.731H418.146V799.808H405.977ZM427.708 799.808V815.731H439.877V799.808H427.708ZM449.438 799.808V815.811L461.173 815.288L461.675 799.808H449.438Z" fill="#D9D9D9"/>
<path id="columnL" d="M272.985 906.844V868.806H100.008V906.844H112.177V893.092C112.177 879.671 112.228 879.289 114.311 877.17C115.484 875.975 117.074 874.998 117.844 874.998C119.551 874.998 122.809 876.677 123.681 878.006C124.033 878.541 124.325 885.249 124.333 892.911L124.346 906.844H139.993V893.092C139.993 879.671 140.044 879.289 142.126 877.17C143.3 875.975 144.89 874.998 145.66 874.998C147.367 874.998 150.625 876.677 151.496 878.006C151.848 878.541 152.141 885.249 152.148 892.911L152.162 906.844H167.807V893.092C167.807 879.671 167.859 879.289 169.941 877.17C171.116 875.975 172.705 874.998 173.475 874.998C175.183 874.998 178.44 876.677 179.312 878.006C179.663 878.541 179.956 885.249 179.964 892.911L179.976 906.844H195.623V893.092C195.623 879.671 195.674 879.289 197.757 877.17C198.93 875.975 200.52 874.998 201.29 874.998C202.997 874.998 206.255 876.677 207.127 878.006C207.479 878.541 207.771 885.249 207.779 892.911L207.792 906.844H223.439V893.092C223.439 879.671 223.49 879.289 225.573 877.17C226.746 875.975 228.336 874.998 229.106 874.998C230.813 874.998 234.071 876.677 234.943 878.006C235.294 878.541 235.587 885.249 235.595 892.911L235.608 906.844H251.253V893.092C251.253 879.671 251.305 879.289 253.387 877.17C254.562 875.975 256.151 874.998 256.921 874.998C258.629 874.998 261.886 876.677 262.758 878.006C263.109 878.541 263.402 885.249 263.41 892.911L263.423 906.844H272.985Z" fill="#D9D9D9"/>
<path id="tip" d="M417.615 173.002H405.313V117.142C405.348 112.424 406.531 110.51 410.991 108.549C416.067 111.359 417.37 113.272 417.615 117.142V173.002Z" fill="#D9D9D9"/>
</g>
<g id="Ellipse 1" style="mix-blend-mode:screen">
<ellipse cx="418" cy="542" rx="418" ry="542" fill="#fabc3e"/>
</g>
</g>
</g>
</g>
</g>
<defs>
<clipPath id="clip0_0_1">
<rect width="4884" height="1324" fill="white" transform="translate(-83 -242)"/>
</clipPath>
</defs>
</svg>
