<svg xmlns="http://www.w3.org/2000/svg" version="1.1" xmlns:xlink="http://www.w3.org/1999/xlink" xmlns:svgjs="http://svgjs.com/svgjs" width="1440" height="560" preserveAspectRatio="none" viewBox="0 0 1440 560"><g mask="url(&quot;#SvgjsMask1250&quot;)" fill="none"><rect width="1440" height="560" x="0" y="0" fill="rgba(255, 255, 255, 1)"></rect><path d="M936 161L935 392" stroke-width="6" stroke="url(#SvgjsLinearGradient1251)" stroke-linecap="round" class="Down"></path><path d="M605 378L604 0" stroke-width="8" stroke="url(#SvgjsLinearGradient1251)" stroke-linecap="round" class="Down"></path><path d="M1040 211L1039 573" stroke-width="10" stroke="url(#SvgjsLinearGradient1252)" stroke-linecap="round" class="Down"></path><path d="M430 93L429 244" stroke-width="10" stroke="url(#SvgjsLinearGradient1253)" stroke-linecap="round" class="Down"></path><path d="M444 162L443 -189" stroke-width="10" stroke="url(#SvgjsLinearGradient1251)" stroke-linecap="round" class="Down"></path><path d="M601 430L600 275" stroke-width="8" stroke="url(#SvgjsLinearGradient1251)" stroke-linecap="round" class="Down"></path><path d="M236 1L235 -274" stroke-width="6" stroke="url(#SvgjsLinearGradient1254)" stroke-linecap="round" class="Up"></path><path d="M613 541L612 157" stroke-width="8" stroke="url(#SvgjsLinearGradient1255)" stroke-linecap="round" class="Up"></path><path d="M470 502L469 664" stroke-width="8" stroke="url(#SvgjsLinearGradient1256)" stroke-linecap="round" class="Up"></path><path d="M379 49L378 -331" stroke-width="6" stroke="url(#SvgjsLinearGradient1256)" stroke-linecap="round" class="Up"></path><path d="M354 398L353 747" stroke-width="6" stroke="url(#SvgjsLinearGradient1254)" stroke-linecap="round" class="Up"></path><path d="M206 144L205 468" stroke-width="6" stroke="url(#SvgjsLinearGradient1253)" stroke-linecap="round" class="Down"></path><path d="M1091 118L1090 476" stroke-width="8" stroke="url(#SvgjsLinearGradient1255)" stroke-linecap="round" class="Up"></path><path d="M450 243L449 501" stroke-width="6" stroke="url(#SvgjsLinearGradient1251)" stroke-linecap="round" class="Down"></path><path d="M149 436L148 282" stroke-width="6" stroke="url(#SvgjsLinearGradient1251)" stroke-linecap="round" class="Down"></path><path d="M780 305L779 -95" stroke-width="6" stroke="url(#SvgjsLinearGradient1252)" stroke-linecap="round" class="Down"></path><path d="M323 461L322 305" stroke-width="6" stroke="url(#SvgjsLinearGradient1252)" stroke-linecap="round" class="Down"></path><path d="M97 382L96 544" stroke-width="10" stroke="url(#SvgjsLinearGradient1252)" stroke-linecap="round" class="Down"></path><path d="M1289 7L1288 238" stroke-width="8" stroke="url(#SvgjsLinearGradient1251)" stroke-linecap="round" class="Down"></path><path d="M908 108L907 -82" stroke-width="10" stroke="url(#SvgjsLinearGradient1251)" stroke-linecap="round" class="Down"></path><path d="M344 67L343 -167" stroke-width="8" stroke="url(#SvgjsLinearGradient1252)" stroke-linecap="round" class="Down"></path><path d="M1107 285L1106 534" stroke-width="8" stroke="url(#SvgjsLinearGradient1256)" stroke-linecap="round" class="Up"></path><path d="M564 141L563 482" stroke-width="8" stroke="url(#SvgjsLinearGradient1254)" stroke-linecap="round" class="Up"></path><path d="M1389 492L1388 290" stroke-width="10" stroke="url(#SvgjsLinearGradient1256)" stroke-linecap="round" class="Up"></path><path d="M866 139L865 -171" stroke-width="10" stroke="url(#SvgjsLinearGradient1253)" stroke-linecap="round" class="Down"></path><path d="M975 33L974 -371" stroke-width="10" stroke="url(#SvgjsLinearGradient1255)" stroke-linecap="round" class="Up"></path><path d="M1401 378L1400 718" stroke-width="10" stroke="url(#SvgjsLinearGradient1253)" stroke-linecap="round" class="Down"></path><path d="M1213 158L1212 -80" stroke-width="8" stroke="url(#SvgjsLinearGradient1252)" stroke-linecap="round" class="Down"></path><path d="M774 450L773 64" stroke-width="6" stroke="url(#SvgjsLinearGradient1256)" stroke-linecap="round" class="Up"></path><path d="M403 58L402 -324" stroke-width="10" stroke="url(#SvgjsLinearGradient1256)" stroke-linecap="round" class="Up"></path><path d="M818 464L817 289" stroke-width="6" stroke="url(#SvgjsLinearGradient1254)" stroke-linecap="round" class="Up"></path><path d="M674 256L673 -11" stroke-width="10" stroke="url(#SvgjsLinearGradient1255)" stroke-linecap="round" class="Up"></path><path d="M131 499L130 312" stroke-width="8" stroke="url(#SvgjsLinearGradient1255)" stroke-linecap="round" class="Up"></path><path d="M354 2L353 -287" stroke-width="8" stroke="url(#SvgjsLinearGradient1254)" stroke-linecap="round" class="Up"></path><path d="M688 90L687 -325" stroke-width="6" stroke="url(#SvgjsLinearGradient1254)" stroke-linecap="round" class="Up"></path><path d="M1397 530L1396 932" stroke-width="8" stroke="url(#SvgjsLinearGradient1252)" stroke-linecap="round" class="Down"></path></g><defs><mask id="SvgjsMask1250"><rect width="1440" height="560" fill="#ffffff"></rect></mask><linearGradient x1="0%" y1="0%" x2="0%" y2="100%" id="SvgjsLinearGradient1251"><stop stop-color="rgba(79, 88, 97, 0)" offset="0"></stop><stop stop-color="rgba(79, 88, 97, 1)" offset="1"></stop></linearGradient><linearGradient x1="0%" y1="0%" x2="0%" y2="100%" id="SvgjsLinearGradient1252"><stop stop-color="rgba(172, 196, 252, 0)" offset="0"></stop><stop stop-color="rgba(172, 196, 252, 1)" offset="1"></stop></linearGradient><linearGradient x1="0%" y1="0%" x2="0%" y2="100%" id="SvgjsLinearGradient1253"><stop stop-color="rgba(68, 4, 252, 0)" offset="0"></stop><stop stop-color="rgba(68, 4, 252, 1)" offset="1"></stop></linearGradient><linearGradient x1="0%" y1="100%" x2="0%" y2="0%" id="SvgjsLinearGradient1254"><stop stop-color="rgba(68, 4, 252, 0)" offset="0"></stop><stop stop-color="rgba(68, 4, 252, 1)" offset="1"></stop></linearGradient><linearGradient x1="0%" y1="100%" x2="0%" y2="0%" id="SvgjsLinearGradient1255"><stop stop-color="rgba(172, 196, 252, 0)" offset="0"></stop><stop stop-color="rgba(172, 196, 252, 1)" offset="1"></stop></linearGradient><linearGradient x1="0%" y1="100%" x2="0%" y2="0%" id="SvgjsLinearGradient1256"><stop stop-color="rgba(79, 88, 97, 0)" offset="0"></stop><stop stop-color="rgba(79, 88, 97, 1)" offset="1"></stop></linearGradient></defs></svg>