<?xml version="1.0" encoding="UTF-8" standalone="no"?>
<svg
   xmlns:dc="http://purl.org/dc/elements/1.1/"
   xmlns:cc="http://creativecommons.org/ns#"
   xmlns:rdf="http://www.w3.org/1999/02/22-rdf-syntax-ns#"
   xmlns:svg="http://www.w3.org/2000/svg"
   xmlns="http://www.w3.org/2000/svg"
   viewBox="0 0 4000 2000"
   height="2000"
   width="4000"
   xml:space="preserve"
   id="svg2"
   version="1.1"><metadata
     id="metadata8"><rdf:RDF><cc:Work
         rdf:about=""><dc:format>image/svg+xml</dc:format><dc:type
           rdf:resource="http://purl.org/dc/dcmitype/StillImage" /></cc:Work></rdf:RDF></metadata><defs
     id="defs6"><clipPath
       id="clipPath18"
       clipPathUnits="userSpaceOnUse"><path
         id="path16"
         d="M 0,1500 H 3000 V 0 H 0 Z" /></clipPath></defs><g
     transform="matrix(1.3333333,0,0,-1.3333333,0,2000)"
     id="g10"><g
       id="g12"><g
         clip-path="url(#clipPath18)"
         id="g14"><g
           transform="translate(1246.671,784.8226)"
           id="g20"><path
             id="path22"
             style="fill:#3e00ff;fill-opacity:1;fill-rule:nonzero;stroke:none"
             d="m 0,0 c -4.493,4.617 -10.029,6.927 -16.607,6.927 -6.452,0 -11.926,-2.343 -16.416,-7.022 -4.492,-4.682 -6.737,-11.073 -6.737,-19.168 0,-8.099 2.245,-14.489 6.737,-19.169 4.49,-4.682 9.964,-7.022 16.416,-7.022 6.453,0 11.957,2.372 16.512,7.117 4.555,4.745 6.832,11.165 6.832,19.263 C 6.737,-10.978 4.489,-4.62 0,0 m -26.475,30.65 c 5.566,3.037 12.081,4.555 19.548,4.555 8.73,0 16.635,-2.215 23.723,-6.642 7.084,-4.431 12.683,-10.756 16.796,-18.979 4.11,-8.226 6.168,-17.778 6.168,-28.658 0,-10.883 -2.058,-20.467 -6.168,-28.752 -4.113,-8.289 -9.712,-14.679 -16.796,-19.169 -7.088,-4.493 -14.993,-6.737 -23.723,-6.737 -7.34,0 -13.825,1.518 -19.454,4.555 -5.631,3.036 -10.029,6.957 -13.189,11.766 v -65.286 H -72.024 V 33.687 H -39.57 V 18.694 c 3.16,4.934 7.526,8.92 13.095,11.956" /></g><g
           transform="translate(1365.1136,746.0109)"
           id="g24"><path
             id="path26"
             style="fill:#3e00ff;fill-opacity:1;fill-rule:nonzero;stroke:none"
             d="m 0,0 c 4.365,4.555 6.548,11.07 6.548,19.548 0,8.475 -2.121,14.993 -6.358,19.548 -4.241,4.555 -9.46,6.832 -15.657,6.832 -6.329,0 -11.577,-2.247 -15.753,-6.737 -4.175,-4.493 -6.263,-11.04 -6.263,-19.643 0,-8.478 2.055,-14.993 6.168,-19.548 4.111,-4.555 9.267,-6.832 15.468,-6.832 6.198,0 11.482,2.277 15.847,6.832 m -43.841,-28.278 c -8.288,4.427 -14.803,10.752 -19.547,18.979 -4.745,8.223 -7.118,17.84 -7.118,28.847 0,10.88 2.402,20.465 7.212,28.753 4.807,8.285 11.387,14.643 19.738,19.073 8.351,4.428 17.712,6.643 28.089,6.643 10.373,0 19.737,-2.215 28.088,-6.643 8.35,-4.43 14.928,-10.788 19.738,-19.073 4.807,-8.288 7.211,-17.873 7.211,-28.753 0,-10.883 -2.437,-20.467 -7.306,-28.752 -4.872,-8.289 -11.515,-14.647 -19.928,-19.074 -8.416,-4.43 -17.81,-6.643 -28.183,-6.643 -10.376,0 -19.708,2.213 -27.994,6.643" /></g><path
           id="path28"
           style="fill:#3e00ff;fill-opacity:1;fill-rule:nonzero;stroke:none"
           d="m 1451.314,712.609 h -32.454 v 140.442 h 32.454 z" /><path
           id="path30"
           style="fill:#3e00ff;fill-opacity:1;fill-rule:nonzero;stroke:none"
           d="m 1503.941,712.609 h -32.454 V 818.51 h 32.454 z m -30.081,121.937 c -3.606,3.351 -5.409,7.497 -5.409,12.431 0,5.059 1.803,9.267 5.409,12.621 3.606,3.351 8.255,5.03 13.949,5.03 5.566,0 10.154,-1.679 13.76,-5.03 3.606,-3.354 5.409,-7.562 5.409,-12.621 0,-4.934 -1.803,-9.08 -5.409,-12.431 -3.606,-3.353 -8.194,-5.029 -13.76,-5.029 -5.694,0 -10.343,1.676 -13.949,5.029" /><g
           transform="translate(1524.5135,794.4068)"
           id="g32"><path
             id="path34"
             style="fill:#3e00ff;fill-opacity:1;fill-rule:nonzero;stroke:none"
             d="m 0,0 c 4.489,8.223 10.752,14.548 18.788,18.978 8.033,4.428 17.239,6.643 27.614,6.643 13.285,0 24.389,-3.481 33.308,-10.438 8.92,-6.96 14.771,-16.767 17.556,-29.417 H 62.724 c -2.912,8.095 -8.54,12.146 -16.891,12.146 -5.948,0 -10.692,-2.31 -14.234,-6.927 -3.543,-4.62 -5.314,-11.23 -5.314,-19.833 0,-8.605 1.771,-15.215 5.314,-19.832 3.542,-4.621 8.286,-6.928 14.234,-6.928 8.351,0 13.979,4.048 16.891,12.147 H 97.266 C 94.481,-55.863 88.597,-65.604 79.615,-72.688 70.629,-79.776 59.56,-83.316 46.402,-83.316 c -10.375,0 -19.581,2.212 -27.614,6.642 -8.036,4.427 -14.299,10.753 -18.788,18.979 -4.493,8.223 -6.738,17.84 -6.738,28.847 C -6.738,-17.84 -4.493,-8.226 0,0" /></g><g
           transform="translate(1739.9956,818.5095)"
           id="g36"><path
             id="path38"
             style="fill:#3e00ff;fill-opacity:1;fill-rule:nonzero;stroke:none"
             d="m 0,0 -66.425,-156.194 h -34.921 l 24.293,53.899 L -120.135,0 h 36.249 L -59.403,-66.235 -35.11,0 Z" /></g><g
           transform="translate(1810.1018,775.8074)"
           id="g40"><path
             id="path42"
             style="fill:#5e7cff;fill-opacity:1;fill-rule:nonzero;stroke:none"
             d="m 0,0 c 0,5.566 -1.899,9.994 -5.694,13.285 -3.796,3.289 -8.54,4.935 -14.234,4.935 -5.442,0 -10.029,-1.584 -13.76,-4.745 C -37.421,10.311 -39.731,5.818 -40.615,0 Z m 32.643,-18.029 h -73.448 c 0.505,-6.581 2.625,-11.61 6.358,-15.088 3.731,-3.482 8.318,-5.22 13.76,-5.22 8.096,0 13.726,3.417 16.891,10.249 h 34.541 c -1.774,-6.96 -4.968,-13.223 -9.584,-18.789 -4.62,-5.569 -10.409,-9.934 -17.366,-13.095 -6.959,-3.164 -14.741,-4.745 -23.344,-4.745 -10.375,0 -19.613,2.212 -27.708,6.643 -8.099,4.427 -14.424,10.752 -18.979,18.978 -4.555,8.223 -6.832,17.84 -6.832,28.848 0,11.007 2.245,20.621 6.737,28.847 4.49,8.223 10.786,14.548 18.884,18.979 8.096,4.427 17.395,6.642 27.898,6.642 10.249,0 19.359,-2.152 27.33,-6.453 7.971,-4.302 14.201,-10.438 18.694,-18.409 4.489,-7.971 6.738,-17.27 6.738,-27.898 0,-3.037 -0.191,-6.201 -0.57,-9.489" /></g><g
           transform="translate(1924.0861,784.7275)"
           id="g44"><path
             id="path46"
             style="fill:#5e7cff;fill-opacity:1;fill-rule:nonzero;stroke:none"
             d="m 0,0 c -4.493,4.68 -9.964,7.022 -16.416,7.022 -6.453,0 -11.927,-2.31 -16.416,-6.927 -4.493,-4.62 -6.738,-10.978 -6.738,-19.074 0,-8.098 2.245,-14.518 6.738,-19.263 4.489,-4.745 9.963,-7.117 16.416,-7.117 6.452,0 11.923,2.34 16.416,7.022 4.49,4.68 6.738,11.07 6.738,19.169 C 6.738,-11.073 4.49,-4.682 0,0 m -66.425,9.679 c 4.11,8.223 9.709,14.548 16.796,18.979 7.085,4.427 14.993,6.642 23.724,6.642 6.956,0 13.315,-1.456 19.073,-4.365 5.756,-2.912 10.278,-6.832 13.57,-11.767 V 68.323 H 39.192 V -72.119 H 6.738 v 15.183 c -3.037,-5.062 -7.372,-9.11 -13,-12.146 -5.632,-3.037 -12.18,-4.555 -19.643,-4.555 -8.731,0 -16.639,2.245 -23.724,6.737 -7.087,4.49 -12.686,10.88 -16.796,19.169 -4.113,8.285 -6.168,17.869 -6.168,28.752 0,10.88 2.055,20.432 6.168,28.658" /></g><g
           transform="translate(2050.4045,784.7275)"
           id="g48"><path
             id="path50"
             style="fill:#5e7cff;fill-opacity:1;fill-rule:nonzero;stroke:none"
             d="m 0,0 c -4.493,4.68 -9.964,7.022 -16.416,7.022 -6.453,0 -11.927,-2.31 -16.416,-6.927 -4.493,-4.62 -6.738,-10.978 -6.738,-19.074 0,-8.098 2.245,-14.518 6.738,-19.263 4.489,-4.745 9.963,-7.117 16.416,-7.117 6.452,0 11.923,2.34 16.416,7.022 4.49,4.68 6.738,11.07 6.738,19.169 C 6.738,-11.073 4.49,-4.682 0,0 m -6.262,30.745 c 5.628,-3.036 9.963,-7.022 13,-11.956 V 33.782 H 39.191 V -71.929 c 0,-9.741 -1.93,-18.566 -5.788,-26.475 -3.861,-7.906 -9.744,-14.202 -17.651,-18.884 -7.908,-4.68 -17.745,-7.022 -29.511,-7.022 -15.69,0 -28.406,3.701 -38.147,11.102 -9.745,7.402 -15.311,17.431 -16.701,30.082 h 32.074 c 1.011,-4.048 3.416,-7.242 7.212,-9.585 3.795,-2.339 8.475,-3.511 14.044,-3.511 6.705,0 12.051,1.931 16.037,5.789 3.985,3.861 5.978,10.029 5.978,18.504 v 14.993 c -3.165,-4.935 -7.53,-8.953 -13.096,-12.051 -5.569,-3.102 -12.084,-4.65 -19.547,-4.65 -8.731,0 -16.639,2.245 -23.724,6.737 -7.087,4.49 -12.686,10.88 -16.796,19.169 -4.113,8.285 -6.168,17.869 -6.168,28.752 0,10.88 2.055,20.432 6.168,28.658 4.11,8.223 9.709,14.548 16.796,18.979 7.085,4.427 14.993,6.642 23.724,6.642 7.463,0 14.011,-1.518 19.643,-4.555" /></g><g
           transform="translate(2176.8579,775.8074)"
           id="g52"><path
             id="path54"
             style="fill:#5e7cff;fill-opacity:1;fill-rule:nonzero;stroke:none"
             d="m 0,0 c 0,5.566 -1.898,9.994 -5.694,13.285 -3.796,3.289 -8.54,4.935 -14.234,4.935 -5.441,0 -10.029,-1.584 -13.76,-4.745 C -37.421,10.311 -39.73,5.818 -40.615,0 Z m 32.643,-18.029 h -73.448 c 0.505,-6.581 2.625,-11.61 6.358,-15.088 3.731,-3.482 8.318,-5.22 13.76,-5.22 8.096,0 13.727,3.417 16.891,10.249 h 34.541 c -1.774,-6.96 -4.967,-13.223 -9.584,-18.789 -4.62,-5.569 -10.409,-9.934 -17.366,-13.095 -6.959,-3.164 -14.741,-4.745 -23.344,-4.745 -10.375,0 -19.613,2.212 -27.708,6.643 -8.099,4.427 -14.424,10.752 -18.979,18.978 -4.555,8.223 -6.832,17.84 -6.832,28.848 0,11.007 2.245,20.621 6.737,28.847 4.49,8.223 10.786,14.548 18.884,18.979 8.096,4.427 17.395,6.642 27.898,6.642 10.249,0 19.359,-2.152 27.33,-6.453 7.971,-4.302 14.201,-10.438 18.694,-18.409 4.489,-7.971 6.738,-17.27 6.738,-27.898 0,-3.037 -0.191,-6.201 -0.57,-9.489" /></g><path
           id="path56"
           style="fill:#3e00ff;fill-opacity:1;fill-rule:nonzero;stroke:none"
           d="m 942.778,735.74 h -4.926 v -6.326 h 4.926 z" /><path
           id="path58"
           style="fill:#3e00ff;fill-opacity:1;fill-rule:nonzero;stroke:none"
           d="m 951.899,735.778 h -4.88 v -6.336 h 4.88 z" /><path
           id="path60"
           style="fill:#3e00ff;fill-opacity:1;fill-rule:nonzero;stroke:none"
           d="m 961.059,735.73 h -4.996 v -6.295 h 4.996 z" /><path
           id="path62"
           style="fill:#3e00ff;fill-opacity:1;fill-rule:nonzero;stroke:none"
           d="m 919.584,794.56 h 4.906 v 6.325 h -4.906 z" /><path
           id="path64"
           style="fill:#3e00ff;fill-opacity:1;fill-rule:nonzero;stroke:none"
           d="m 933.601,800.923 h -4.833 v -6.318 h 4.833 z" /><path
           id="path66"
           style="fill:#3e00ff;fill-opacity:1;fill-rule:nonzero;stroke:none"
           d="m 951.901,800.938 h -4.851 v -6.404 h 4.851 z" /><path
           id="path68"
           style="fill:#3e00ff;fill-opacity:1;fill-rule:nonzero;stroke:none"
           d="m 956.135,794.606 h 4.979 v 6.291 h -4.979 z" /><path
           id="path70"
           style="fill:#3e00ff;fill-opacity:1;fill-rule:nonzero;stroke:none"
           d="m 919.573,768.606 h 4.956 v 6.308 h -4.956 z" /><path
           id="path72"
           style="fill:#3e00ff;fill-opacity:1;fill-rule:nonzero;stroke:none"
           d="M 951.916,748.821 H 947 v -6.29 h 4.916 z" /><path
           id="path74"
           style="fill:#3e00ff;fill-opacity:1;fill-rule:nonzero;stroke:none"
           d="m 919.608,703.373 h 4.926 v 6.37 h -4.926 z" /><path
           id="path76"
           style="fill:#3e00ff;fill-opacity:1;fill-rule:nonzero;stroke:none"
           d="m 928.736,703.417 h 4.941 v 6.344 h -4.941 z" /><path
           id="path78"
           style="fill:#3e00ff;fill-opacity:1;fill-rule:nonzero;stroke:none"
           d="m 937.896,703.378 h 4.903 v 6.39 h -4.903 z" /><path
           id="path80"
           style="fill:#3e00ff;fill-opacity:1;fill-rule:nonzero;stroke:none"
           d="m 947.012,703.411 h 4.882 v 6.404 h -4.882 z" /><path
           id="path82"
           style="fill:#3e00ff;fill-opacity:1;fill-rule:nonzero;stroke:none"
           d="m 956.158,703.367 h 4.938 v 6.386 h -4.938 z" /><path
           id="path84"
           style="fill:#3e00ff;fill-opacity:1;fill-rule:nonzero;stroke:none"
           d="m 937.883,742.582 h 4.862 v 6.233 h -4.862 z" /><path
           id="path86"
           style="fill:#3e00ff;fill-opacity:1;fill-rule:nonzero;stroke:none"
           d="m 928.75,768.628 h 4.941 v 6.272 h -4.941 z" /><path
           id="path88"
           style="fill:#3e00ff;fill-opacity:1;fill-rule:nonzero;stroke:none"
           d="m 942.837,774.852 h -4.958 v -6.245 h 4.958 z" /><path
           id="path90"
           style="fill:#3e00ff;fill-opacity:1;fill-rule:nonzero;stroke:none"
           d="m 951.892,774.948 h -4.902 v -6.365 h 4.902 z" /><path
           id="path92"
           style="fill:#3e00ff;fill-opacity:1;fill-rule:nonzero;stroke:none"
           d="m 933.617,748.808 h -4.889 v -6.289 h 4.889 z" /><path
           id="path94"
           style="fill:#3e00ff;fill-opacity:1;fill-rule:nonzero;stroke:none"
           d="m 919.576,742.561 h 4.999 v 6.238 h -4.999 z" /><path
           id="path96"
           style="fill:#3e00ff;fill-opacity:1;fill-rule:nonzero;stroke:none"
           d="m 956.15,768.615 h 4.987 v 6.156 h -4.987 z" /><path
           id="path98"
           style="fill:#3e00ff;fill-opacity:1;fill-rule:nonzero;stroke:none"
           d="M 924.514,761.814 H 919.6 v -6.306 h 4.914 z" /><path
           id="path100"
           style="fill:#3e00ff;fill-opacity:1;fill-rule:nonzero;stroke:none"
           d="m 961.102,761.758 h -4.972 v -6.3 h 4.972 z" /><path
           id="path102"
           style="fill:#3e00ff;fill-opacity:1;fill-rule:nonzero;stroke:none"
           d="m 951.924,761.746 h -4.893 v -6.288 h 4.893 z" /><path
           id="path104"
           style="fill:#3e00ff;fill-opacity:1;fill-rule:nonzero;stroke:none"
           d="m 933.674,735.772 h -4.898 v -6.344 h 4.898 z" /><path
           id="path106"
           style="fill:#3e00ff;fill-opacity:1;fill-rule:nonzero;stroke:none"
           d="m 924.538,735.756 h -4.976 v -6.304 h 4.976 z" /><path
           id="path108"
           style="fill:#3e00ff;fill-opacity:1;fill-rule:nonzero;stroke:none"
           d="m 942.749,761.853 h -4.827 v -6.376 h 4.827 z" /><path
           id="path110"
           style="fill:#3e00ff;fill-opacity:1;fill-rule:nonzero;stroke:none"
           d="m 933.636,761.754 h -4.896 v -6.308 h 4.896 z" /><path
           id="path112"
           style="fill:#3e00ff;fill-opacity:1;fill-rule:nonzero;stroke:none"
           d="m 937.906,794.584 h 4.793 v 6.331 h -4.793 z" /><path
           id="path114"
           style="fill:#3e00ff;fill-opacity:1;fill-rule:nonzero;stroke:none"
           d="m 961.097,787.816 h -4.993 v -6.246 h 4.993 z" /><path
           id="path116"
           style="fill:#3e00ff;fill-opacity:1;fill-rule:nonzero;stroke:none"
           d="m 956.109,742.604 h 5.004 v 6.205 h -5.004 z" /><path
           id="path118"
           style="fill:#3e00ff;fill-opacity:1;fill-rule:nonzero;stroke:none"
           d="m 933.691,787.765 h -4.947 v -6.192 h 4.947 z" /><path
           id="path120"
           style="fill:#3e00ff;fill-opacity:1;fill-rule:nonzero;stroke:none"
           d="m 937.906,781.523 h 4.851 v 6.308 h -4.851 z" /><path
           id="path122"
           style="fill:#3e00ff;fill-opacity:1;fill-rule:nonzero;stroke:none"
           d="m 951.909,787.885 h -4.906 v -6.294 h 4.906 z" /><path
           id="path124"
           style="fill:#3e00ff;fill-opacity:1;fill-rule:nonzero;stroke:none"
           d="m 919.627,781.543 h 4.883 v 6.242 h -4.883 z" /><path
           id="path126"
           style="fill:#3e00ff;fill-opacity:1;fill-rule:nonzero;stroke:none"
           d="m 956.165,716.537 h 4.935 v 6.188 h -4.935 z" /><path
           id="path128"
           style="fill:#3e00ff;fill-opacity:1;fill-rule:nonzero;stroke:none"
           d="m 951.939,722.693 h -4.954 v -6.204 h 4.954 z" /><path
           id="path130"
           style="fill:#3e00ff;fill-opacity:1;fill-rule:nonzero;stroke:none"
           d="m 942.756,722.722 h -4.889 v -6.203 h 4.889 z" /><path
           id="path132"
           style="fill:#3e00ff;fill-opacity:1;fill-rule:nonzero;stroke:none"
           d="m 928.735,716.466 h 4.899 v 6.252 h -4.899 z" /><path
           id="path134"
           style="fill:#3e00ff;fill-opacity:1;fill-rule:nonzero;stroke:none"
           d="m 919.604,716.546 h 4.937 v 6.187 h -4.937 z" /><path
           id="path136"
           style="fill:#3e00ff;fill-opacity:1;fill-rule:nonzero;stroke:none"
           d="m 1049.676,712.326 h -5.042 v -6.329 h 5.042 z" /><path
           id="path138"
           style="fill:#3e00ff;fill-opacity:1;fill-rule:nonzero;stroke:none"
           d="m 1030.294,705.932 h 5.011 v 6.4 h -5.011 z" /><path
           id="path140"
           style="fill:#3e00ff;fill-opacity:1;fill-rule:nonzero;stroke:none"
           d="m 1049.698,725.32 h -5.032 v -6.246 h 5.032 z" /><path
           id="path142"
           style="fill:#3e00ff;fill-opacity:1;fill-rule:nonzero;stroke:none"
           d="m 1049.662,686.258 h -5.048 v -6.323 h 5.048 z" /><path
           id="path144"
           style="fill:#3e00ff;fill-opacity:1;fill-rule:nonzero;stroke:none"
           d="m 1035.178,686.279 h -4.917 v -6.349 h 4.917 z" /><path
           id="path146"
           style="fill:#3e00ff;fill-opacity:1;fill-rule:nonzero;stroke:none"
           d="m 1035.245,725.355 h -4.989 v -6.257 h 4.989 z" /><path
           id="path148"
           style="fill:#3e00ff;fill-opacity:1;fill-rule:nonzero;stroke:none"
           d="m 1044.645,666.969 h 5.036 v 6.246 h -5.036 z" /><path
           id="path150"
           style="fill:#3e00ff;fill-opacity:1;fill-rule:nonzero;stroke:none"
           d="m 1030.287,693.072 h 5.037 v 6.202 h -5.037 z" /><path
           id="path152"
           style="fill:#3e00ff;fill-opacity:1;fill-rule:nonzero;stroke:none"
           d="m 1049.557,699.245 h -4.954 v -6.19 h 4.954 z" /><path
           id="path154"
           style="fill:#3e00ff;fill-opacity:1;fill-rule:nonzero;stroke:none"
           d="m 1000.409,679.994 h 4.958 v 6.352 h -4.958 z" /><path
           id="path156"
           style="fill:#3e00ff;fill-opacity:1;fill-rule:nonzero;stroke:none"
           d="m 1027.444,725.35 h -4.934 v -6.203 h 4.934 z" /><path
           id="path158"
           style="fill:#3e00ff;fill-opacity:1;fill-rule:nonzero;stroke:none"
           d="m 1057.406,725.375 h -4.925 v -6.259 h 4.925 z" /><path
           id="path160"
           style="fill:#3e00ff;fill-opacity:1;fill-rule:nonzero;stroke:none"
           d="m 1005.395,712.277 h -5.061 v -6.275 h 5.061 z" /><path
           id="path162"
           style="fill:#3e00ff;fill-opacity:1;fill-rule:nonzero;stroke:none"
           d="m 1008.207,706.01 h 4.9 v 6.343 h -4.9 z" /><path
           id="path164"
           style="fill:#3e00ff;fill-opacity:1;fill-rule:nonzero;stroke:none"
           d="m 1022.511,706.025 h 4.895 v 6.325 h -4.895 z" /><path
           id="path166"
           style="fill:#3e00ff;fill-opacity:1;fill-rule:nonzero;stroke:none"
           d="m 1052.521,706.035 h 4.886 v 6.305 h -4.886 z" /><path
           id="path168"
           style="fill:#3e00ff;fill-opacity:1;fill-rule:nonzero;stroke:none"
           d="m 1008.22,679.983 h 4.903 v 6.352 h -4.903 z" /><path
           id="path170"
           style="fill:#3e00ff;fill-opacity:1;fill-rule:nonzero;stroke:none"
           d="m 1022.536,679.942 h 4.902 v 6.35 h -4.902 z" /><path
           id="path172"
           style="fill:#3e00ff;fill-opacity:1;fill-rule:nonzero;stroke:none"
           d="m 1057.395,686.268 h -4.968 v -6.306 h 4.968 z" /><path
           id="path174"
           style="fill:#3e00ff;fill-opacity:1;fill-rule:nonzero;stroke:none"
           d="m 1005.399,725.364 h -5.02 v -6.261 h 5.02 z" /><path
           id="path176"
           style="fill:#3e00ff;fill-opacity:1;fill-rule:nonzero;stroke:none"
           d="m 1013.101,725.357 h -4.96 v -6.226 h 4.96 z" /><path
           id="path178"
           style="fill:#3e00ff;fill-opacity:1;fill-rule:nonzero;stroke:none"
           d="m 1030.265,666.961 h 5.016 v 6.17 h -5.016 z" /><path
           id="path180"
           style="fill:#3e00ff;fill-opacity:1;fill-rule:nonzero;stroke:none"
           d="m 1000.364,693.095 h 5.051 v 6.157 h -5.051 z" /><path
           id="path182"
           style="fill:#3e00ff;fill-opacity:1;fill-rule:nonzero;stroke:none"
           d="m 1000.427,666.949 h 4.931 v 6.23 h -4.931 z" /><path
           id="path184"
           style="fill:#3e00ff;fill-opacity:1;fill-rule:nonzero;stroke:none"
           d="m 1052.468,666.967 h 4.962 v 6.222 h -4.962 z" /><path
           id="path186"
           style="fill:#3e00ff;fill-opacity:1;fill-rule:nonzero;stroke:none"
           d="m 1027.402,673.158 h -4.924 v -6.157 h 4.924 z" /><path
           id="path188"
           style="fill:#3e00ff;fill-opacity:1;fill-rule:nonzero;stroke:none"
           d="m 1008.206,666.957 h 4.868 v 6.25 h -4.868 z" /><path
           id="path190"
           style="fill:#3e00ff;fill-opacity:1;fill-rule:nonzero;stroke:none"
           d="m 1052.519,693.031 h 4.92 v 6.237 h -4.92 z" /><path
           id="path192"
           style="fill:#3e00ff;fill-opacity:1;fill-rule:nonzero;stroke:none"
           d="m 1027.382,699.288 h -4.88 v -6.202 h 4.88 z" /><path
           id="path194"
           style="fill:#3e00ff;fill-opacity:1;fill-rule:nonzero;stroke:none"
           d="m 1008.234,693.065 h 4.872 v 6.249 h -4.872 z" /><path
           id="path196"
           style="fill:#3e00ff;fill-opacity:1;fill-rule:nonzero;stroke:none"
           d="m 845.378,679.966 h 5.037 v 6.351 h -5.037 z" /><path
           id="path198"
           style="fill:#3e00ff;fill-opacity:1;fill-rule:nonzero;stroke:none"
           d="m 836.055,712.279 h -5.097 v -6.285 h 5.097 z" /><path
           id="path200"
           style="fill:#3e00ff;fill-opacity:1;fill-rule:nonzero;stroke:none"
           d="m 831.022,679.909 h 5.031 v 6.414 h -5.031 z" /><path
           id="path202"
           style="fill:#3e00ff;fill-opacity:1;fill-rule:nonzero;stroke:none"
           d="m 845.393,706.01 h 5.017 v 6.325 h -5.017 z" /><path
           id="path204"
           style="fill:#3e00ff;fill-opacity:1;fill-rule:nonzero;stroke:none"
           d="m 850.407,725.355 h -5.045 v -6.247 h 5.045 z" /><path
           id="path206"
           style="fill:#3e00ff;fill-opacity:1;fill-rule:nonzero;stroke:none"
           d="m 836.064,725.359 h -5.049 v -6.246 h 5.049 z" /><path
           id="path208"
           style="fill:#3e00ff;fill-opacity:1;fill-rule:nonzero;stroke:none"
           d="m 845.388,666.97 h 5.038 v 6.241 h -5.038 z" /><path
           id="path210"
           style="fill:#3e00ff;fill-opacity:1;fill-rule:nonzero;stroke:none"
           d="m 831.005,666.957 h 5.037 v 6.262 h -5.037 z" /><path
           id="path212"
           style="fill:#3e00ff;fill-opacity:1;fill-rule:nonzero;stroke:none"
           d="m 836.046,699.241 h -5.073 v -6.144 h 5.073 z" /><path
           id="path214"
           style="fill:#3e00ff;fill-opacity:1;fill-rule:nonzero;stroke:none"
           d="m 850.403,699.288 h -5.051 v -6.232 h 5.051 z" /><path
           id="path216"
           style="fill:#3e00ff;fill-opacity:1;fill-rule:nonzero;stroke:none"
           d="m 875.28,679.938 h 5.03 v 6.349 h -5.03 z" /><path
           id="path218"
           style="fill:#3e00ff;fill-opacity:1;fill-rule:nonzero;stroke:none"
           d="m 828.194,725.326 h -4.917 v -6.222 h 4.917 z" /><path
           id="path220"
           style="fill:#3e00ff;fill-opacity:1;fill-rule:nonzero;stroke:none"
           d="m 858.186,725.35 h -4.989 v -6.197 h 4.989 z" /><path
           id="path222"
           style="fill:#3e00ff;fill-opacity:1;fill-rule:nonzero;stroke:none"
           d="m 872.501,725.323 h -4.968 v -6.214 h 4.968 z" /><path
           id="path224"
           style="fill:#3e00ff;fill-opacity:1;fill-rule:nonzero;stroke:none"
           d="m 823.287,705.984 h 4.897 v 6.332 h -4.897 z" /><path
           id="path226"
           style="fill:#3e00ff;fill-opacity:1;fill-rule:nonzero;stroke:none"
           d="m 858.137,712.328 h -4.916 v -6.347 h 4.916 z" /><path
           id="path228"
           style="fill:#3e00ff;fill-opacity:1;fill-rule:nonzero;stroke:none"
           d="m 867.574,705.956 h 4.9 v 6.361 h -4.9 z" /><path
           id="path230"
           style="fill:#3e00ff;fill-opacity:1;fill-rule:nonzero;stroke:none"
           d="m 875.316,706.031 h 5.018 v 6.284 h -5.018 z" /><path
           id="path232"
           style="fill:#3e00ff;fill-opacity:1;fill-rule:nonzero;stroke:none"
           d="m 828.09,686.296 h -4.817 v -6.301 h 4.817 z" /><path
           id="path234"
           style="fill:#3e00ff;fill-opacity:1;fill-rule:nonzero;stroke:none"
           d="m 853.251,679.965 h 4.949 v 6.3 h -4.949 z" /><path
           id="path236"
           style="fill:#3e00ff;fill-opacity:1;fill-rule:nonzero;stroke:none"
           d="m 872.466,686.302 h -4.882 v -6.372 h 4.882 z" /><path
           id="path238"
           style="fill:#3e00ff;fill-opacity:1;fill-rule:nonzero;stroke:none"
           d="m 880.254,725.332 h -4.959 v -6.253 h 4.959 z" /><path
           id="path240"
           style="fill:#3e00ff;fill-opacity:1;fill-rule:nonzero;stroke:none"
           d="m 875.276,666.958 h 4.996 v 6.252 h -4.996 z" /><path
           id="path242"
           style="fill:#3e00ff;fill-opacity:1;fill-rule:nonzero;stroke:none"
           d="m 880.294,699.24 h -5.041 v -6.184 h 5.041 z" /><path
           id="path244"
           style="fill:#3e00ff;fill-opacity:1;fill-rule:nonzero;stroke:none"
           d="m 867.556,667.016 h 4.944 v 6.192 h -4.944 z" /><path
           id="path246"
           style="fill:#3e00ff;fill-opacity:1;fill-rule:nonzero;stroke:none"
           d="m 853.276,666.97 h 4.895 v 6.215 h -4.895 z" /><path
           id="path248"
           style="fill:#3e00ff;fill-opacity:1;fill-rule:nonzero;stroke:none"
           d="m 828.167,699.258 h -4.898 v -6.212 h 4.898 z" /><path
           id="path250"
           style="fill:#3e00ff;fill-opacity:1;fill-rule:nonzero;stroke:none"
           d="m 828.171,673.186 h -4.902 v -6.215 h 4.902 z" /><path
           id="path252"
           style="fill:#3e00ff;fill-opacity:1;fill-rule:nonzero;stroke:none"
           d="m 867.566,693.101 h 4.911 v 6.188 h -4.911 z" /><path
           id="path254"
           style="fill:#3e00ff;fill-opacity:1;fill-rule:nonzero;stroke:none"
           d="m 858.128,699.283 h -4.876 v -6.257 h 4.876 z" /><path
           id="path256"
           style="fill:#3e00ff;fill-opacity:1;fill-rule:nonzero;stroke:none"
           d="m 961.121,679.715 h -5 v -6.278 h 5 z" /><path
           id="path258"
           style="fill:#3e00ff;fill-opacity:1;fill-rule:nonzero;stroke:none"
           d="m 947.009,673.435 h 4.94 v 6.317 h -4.94 z" /><path
           id="path260"
           style="fill:#3e00ff;fill-opacity:1;fill-rule:nonzero;stroke:none"
           d="m 937.857,673.419 h 4.896 v 6.321 h -4.896 z" /><path
           id="path262"
           style="fill:#3e00ff;fill-opacity:1;fill-rule:nonzero;stroke:none"
           d="m 919.593,673.398 h 4.92 v 6.303 h -4.92 z" /><path
           id="path264"
           style="fill:#3e00ff;fill-opacity:1;fill-rule:nonzero;stroke:none"
           d="m 924.538,692.82 h -4.971 v -6.314 h 4.971 z" /><path
           id="path266"
           style="fill:#3e00ff;fill-opacity:1;fill-rule:nonzero;stroke:none"
           d="m 933.695,692.854 h -4.946 v -6.277 h 4.946 z" /><path
           id="path268"
           style="fill:#3e00ff;fill-opacity:1;fill-rule:nonzero;stroke:none"
           d="m 942.768,692.796 h -4.938 v -6.226 h 4.938 z" /><path
           id="path270"
           style="fill:#3e00ff;fill-opacity:1;fill-rule:nonzero;stroke:none"
           d="m 951.961,692.837 h -4.972 v -6.305 h 4.972 z" /><path
           id="path272"
           style="fill:#3e00ff;fill-opacity:1;fill-rule:nonzero;stroke:none"
           d="m 961.137,692.721 h -4.987 v -6.157 h 4.987 z" /><path
           id="path274"
           style="fill:#3e00ff;fill-opacity:1;fill-rule:nonzero;stroke:none"
           d="m 928.764,673.536 h 4.881 v 6.148 h -4.881 z" /><path
           id="path276"
           style="fill:#3e00ff;fill-opacity:1;fill-rule:nonzero;stroke:none"
           d="m 961.1,813.86 h -4.999 v -6.175 h 4.999 z" /><path
           id="path278"
           style="fill:#3e00ff;fill-opacity:1;fill-rule:nonzero;stroke:none"
           d="m 951.936,813.842 h -4.892 v -6.198 h 4.892 z" /><path
           id="path280"
           style="fill:#3e00ff;fill-opacity:1;fill-rule:nonzero;stroke:none"
           d="m 942.788,813.854 h -4.894 v -6.23 h 4.894 z" /><path
           id="path282"
           style="fill:#3e00ff;fill-opacity:1;fill-rule:nonzero;stroke:none"
           d="m 933.642,813.901 h -4.866 v -6.252 h 4.866 z" /><path
           id="path284"
           style="fill:#3e00ff;fill-opacity:1;fill-rule:nonzero;stroke:none"
           d="m 924.53,813.83 h -4.974 v -6.183 h 4.974 z" /><g
           transform="translate(1064.0289,664.2465)"
           id="g286"><path
             id="path288"
             style="fill:#3e00ff;fill-opacity:1;fill-rule:nonzero;stroke:none"
             d="m 0,0 h -65.061 v 6.425 h -3.888 v 57.339 l 68.949,0 z m -74.338,6.512 h -8.903 v 142.367 h 8.903 z m -14.263,0.029 h -5.042 v 150.118 h 5.042 z m -6.568,155.476 h -5.095 c 0,1.547 0.009,3.095 -0.007,4.642 0,0.23 -0.024,0.461 -0.056,0.691 -0.056,0.317 -0.119,0.603 -0.23,0.865 -0.119,0.254 -0.231,0.484 -0.405,0.69 -0.119,0.143 -0.23,0.262 -0.373,0.373 -0.405,0.318 -0.92,0.46 -1.523,0.46 -0.786,0 -1.413,-0.341 -1.873,-0.865 -0.067,-0.075 -0.121,-0.162 -0.179,-0.245 0.057,0.083 0.108,0.173 0.175,0.247 -0.491,-0.547 -0.78,-1.325 -0.72,-2.218 0.028,-0.461 0.056,-0.893 0.056,-1.354 0,0.151 -0.008,0.295 -0.009,0.445 0.001,-0.15 0.01,-0.294 0.01,-0.446 0.04,-1.079 0.047,-2.174 0.04,-3.285 h -5.334 c -0.004,0.455 -0.002,0.911 -0.007,1.366 v 0.221 c 0.023,0.921 0,1.841 0,2.738 0,0.286 0,0.516 -0.032,0.778 -0.055,0.492 -0.167,0.888 -0.317,1.238 -0.088,0.174 -0.167,0.341 -0.286,0.492 -0.087,0.142 -0.198,0.254 -0.349,0.373 -0.373,0.317 -0.865,0.492 -1.468,0.492 -1.73,0.055 -2.738,-1.159 -2.738,-3.318 0,-0.896 -0.024,-1.785 0,-2.682 v -0.323 c -0.006,-0.458 -0.01,-0.916 -0.014,-1.375 h -5.232 v 4.642 c -0.023,1.238 -0.397,2.127 -1.063,2.619 -0.143,0.119 -0.286,0.206 -0.428,0.286 -0.318,0.119 -0.667,0.206 -1.072,0.206 -0.778,0 -1.412,-0.286 -1.841,-0.833 -0.119,-0.119 -0.23,-0.262 -0.317,-0.437 -0.175,-0.317 -0.286,-0.722 -0.341,-1.15 -0.032,-0.207 -0.064,-0.437 -0.064,-0.691 v -4.642 h -5.388 v 0.436 c 0,1.437 0,2.849 0.031,4.262 0,0.262 0,0.516 -0.031,0.746 -0.056,0.381 -0.144,0.722 -0.255,1.008 -0.087,0.15 -0.174,0.262 -0.262,0.381 -0.373,0.46 -0.92,0.69 -1.698,0.714 -0.897,0.032 -1.587,-0.167 -2.023,-0.659 -0.111,-0.119 -0.198,-0.23 -0.286,-0.373 -0.087,-0.143 -0.143,-0.294 -0.199,-0.46 -0.055,-0.175 -0.087,-0.349 -0.142,-0.548 0,-0.206 -0.032,-0.404 -0.032,-0.635 -0.056,-1.468 -0.088,-2.944 -0.111,-4.38 v -0.492 h -5.452 v 0.46 c 0,0.778 0,1.532 0.032,2.309 -0.032,0.746 0,1.524 0,2.278 0,0.198 0,0.397 -0.032,0.603 -0.024,0.143 -0.056,0.286 -0.087,0.429 -0.056,0.142 -0.08,0.293 -0.144,0.404 -0.087,0.119 -0.142,0.231 -0.23,0.318 -0.087,0.119 -0.174,0.198 -0.285,0.286 -0.087,0.087 -0.199,0.174 -0.318,0.23 -0.262,0.15 -0.547,0.23 -0.896,0.317 -0.976,0.206 -1.754,-0.111 -2.246,-0.714 -0.111,-0.175 -0.23,-0.318 -0.285,-0.492 -0.088,-0.207 -0.175,-0.373 -0.199,-0.579 -0.088,-0.342 -0.151,-0.691 -0.175,-1.04 -0.119,-1.032 -0.063,-2.103 -0.087,-3.135 -0.016,-0.563 -0.024,-1.119 -0.024,-1.674 h -5.279 v 14.292 h 57.195 z M -99.002,36.478 h -49.414 v 116.263 h 49.414 z m -0.03,-29.937 h -49.414 v 24.693 h 49.414 z m -34.403,199.091 c 0.174,0.262 0.404,0.46 0.547,0.746 0.262,0.524 0.516,0.984 0.833,1.389 0.294,0.428 0.612,0.801 0.953,1.151 2.563,2.674 6.111,3.11 9.999,2.618 2.246,-0.254 3.944,-1.5 5.245,-3.309 5.159,-7.007 10.285,-14.007 15.619,-21.268 h -46.91 c 4.667,6.341 9.19,12.507 13.714,18.673 M -153.689,6.454 h -5.1 v 150.233 h 5.1 z m -10.431,0.115 h -8.933 v 142.367 h 8.933 z m -14.319,0 h -3.775 V 0.086 h -65.176 v 63.649 h 68.951 z M 12.995,-0.428 v 0.395 H 5.189 v 69.129 h -5.214 v 10.319 h -69.043 v 74.739 h -14.349 v 7.805 h -6.449 v 19.42 c -0.921,0.087 -1.678,0.144 -2.62,0.231 0,0.493 0,0.785 0.009,0.954 0.029,-0.461 0.008,0.58 0,0.024 -0.009,0.148 -0.025,0.436 -0.041,0.942 -0.058,0.983 -0.375,2.081 -0.922,2.858 -5.65,7.777 -11.441,15.497 -17.03,23.331 -0.761,1.078 -1.563,2.077 -2.439,2.97 -0.094,1.024 -0.419,1.879 -0.781,2.759 -0.375,0.885 -0.864,2.098 -1.44,4.261 l -0.756,2.883 h -3.603 l -2.961,21.39 c -0.087,0.58 -0.551,1.061 -1.16,1.143 -0.736,0.086 -1.402,-0.424 -1.489,-1.16 l -2.735,-21.373 h -3.845 l -0.753,-2.883 c -0.563,-2.163 -1.061,-3.376 -1.435,-4.261 -0.378,-0.925 -0.724,-1.822 -0.802,-2.92 -0.687,-0.773 -1.398,-1.694 -2.217,-2.833 -5.65,-7.72 -11.359,-15.418 -16.944,-23.195 -0.633,-0.835 -0.954,-2.073 -1.04,-3.143 -0.016,-0.358 -0.032,-0.6 -0.048,-0.757 -0.016,0.451 -0.046,-0.782 -0.001,-0.025 0.016,-0.148 0.016,-0.44 0.016,-0.965 -0.95,-0.087 -1.699,-0.144 -2.673,-0.259 v -19.564 h -6.547 v -7.724 h -14.259 V 79.349 h -69.121 V 68.952 h -5.161 v -69.01 h -7.806 v -0.37 h -0.058 v -28.723 h -13.571 v -13.255 h 17.262 v 10e-4 h 3.244 1.052 v 12.876 h 26 v 7.769 h -9.537 v 9.821 h 9.821 v -9.821 h 17.318 v -7.629 h -11.914 v -10.524 h 8.756 5.663 v 10.384 h 24.589 v 7.995 h -11.293 v 13.765 h 13.765 v -11.018 h 10.368 v -10.364 h -4.643 v -12.584 h 12.613 v 12.206 h 8.267 v 10.228 h 15.179 V -29.529 H 13.427 v 29.101 z" /></g><g
           transform="translate(807.1921,621.8411)"
           id="g290"><path
             id="path292"
             style="fill:#5e7cff;fill-opacity:1;fill-rule:nonzero;stroke:none"
             d="M 0,0 V 0 -0.233 -14.335 H 20.55 V 0 H 4.296 3.243 Z" /></g><path
           id="path294"
           style="fill:#5e7cff;fill-opacity:1;fill-rule:nonzero;stroke:none"
           d="m 798.939,590.619 h 14.335 v 14.335 h -14.335 z" /><path
           id="path296"
           style="fill:#aec4ff;fill-opacity:1;fill-rule:nonzero;stroke:none"
           d="m 913.325,615.883 h 12.617 v 12.587 h -12.617 z" /><g
           transform="translate(878.0583,622.5109)"
           id="g298"><path
             id="path300"
             style="fill:#5e7cff;fill-opacity:1;fill-rule:nonzero;stroke:none"
             d="M 0,0 V -12.977 H 15.062 V 0 H 12.32 Z" /></g><g
           transform="translate(851.9316,613.9078)"
           id="g302"><path
             id="path304"
             style="fill:#5e7cff;fill-opacity:1;fill-rule:nonzero;stroke:none"
             d="M 0,0 H 14.156 V 10.426 H 5.663 0 Z" /></g><path
           id="path306"
           style="fill:#aec4ff;fill-opacity:1;fill-rule:nonzero;stroke:none"
           d="m 839.212,599.742 h 14.154 v 10.422 h -14.154 z" /></g></g></g></svg>